<svg width="109" height="25" viewBox="0 0 109 25" fill="none" xmlns="http://www.w3.org/2000/svg">
<path d="M10.8698 10.0806C10.3588 9.69373 9.80141 9.35241 9.15108 9.07935C8.50075 8.80629 7.82719 8.55598 7.15363 8.35118C6.38717 8.12363 5.69039 7.87332 5.10974 7.62302C4.50586 7.37271 4.06457 7.0769 3.7394 6.69006C3.41424 6.32598 3.25165 5.82536 3.25165 5.18822C3.25165 4.71036 3.39101 4.30077 3.64649 3.93669C3.90198 3.57261 4.2736 3.29955 4.78457 3.09475C5.29555 2.88995 5.92265 2.79893 6.68911 2.82169C7.36267 2.84444 7.98977 2.93547 8.5472 3.09475C9.10463 3.25404 9.6156 3.45883 10.0801 3.70914C10.5446 3.95944 11.0092 4.23251 11.4737 4.52832V1.59291C10.893 1.31985 10.3588 1.0923 9.87109 0.910258C9.38334 0.728217 8.87236 0.568933 8.31494 0.477913C7.75751 0.386892 7.13041 0.34138 6.38717 0.34138C5.24909 0.34138 4.29683 0.500666 3.48391 0.796483C2.671 1.0923 2.02067 1.50189 1.53292 2.0025C1.04518 2.50312 0.673555 3.04924 0.441294 3.68638C0.209033 4.30077 0.069679 4.91516 0.069679 5.50679C0.069679 6.34873 0.209036 7.0769 0.487749 7.64577C0.766462 8.23741 1.13808 8.69251 1.6026 9.07935C2.06712 9.44343 2.5781 9.762 3.15875 10.0123C3.7394 10.2626 4.32005 10.4902 4.9007 10.695C5.66717 10.968 6.4104 11.2411 7.08396 11.5141C7.75751 11.7872 8.31494 12.1285 8.73301 12.5154C9.15108 12.9022 9.36011 13.4256 9.36011 14.0627C9.36011 14.8819 9.0814 15.519 8.52397 15.9741C7.96655 16.4292 7.10718 16.6568 5.94588 16.6568C4.76135 16.6568 3.6465 16.4748 2.62455 16.1107C1.6026 15.7466 0.720009 15.2915 0 14.7226V17.7263C0.603878 18.0449 1.20776 18.2952 1.78841 18.5227C2.36906 18.7503 2.99616 18.9096 3.69295 19.0006C4.38973 19.0916 5.20264 19.1599 6.13168 19.1599C7.64138 19.1599 8.84914 18.9096 9.77818 18.3862C10.7072 17.8628 11.404 17.2029 11.8221 16.3837C12.2634 15.5646 12.4724 14.6771 12.4724 13.7214C12.4724 12.8795 12.3098 12.1513 12.0079 11.5824C11.7756 10.968 11.3808 10.4674 10.8698 10.0806Z" fill="#4C4C66"/>
<path d="M25.7578 5.66603C24.759 5.11991 23.4816 4.84685 21.9487 4.84685C19.8119 4.84685 18.1628 5.41572 17.0247 6.57624C15.8867 7.73675 15.306 9.5344 15.306 11.992C15.306 14.313 15.8634 16.1106 16.9551 17.3622C18.0467 18.6137 19.7422 19.2281 21.9951 19.2281C24.1319 19.2281 25.8042 18.5909 26.9423 17.3394C28.1036 16.0879 28.6842 14.2902 28.6842 11.992C28.6842 10.4674 28.452 9.17032 27.9642 8.10083C27.4997 7.03134 26.7565 6.23491 25.7578 5.66603ZM25.4326 14.495C25.1771 15.2232 24.7823 15.7921 24.2248 16.2016C23.6674 16.6112 22.9242 16.816 21.9719 16.816C20.6016 16.816 19.6261 16.3837 19.0454 15.5418C18.4648 14.6998 18.1861 13.5165 18.1861 12.0147C18.1861 11.0135 18.3022 10.1715 18.5577 9.46613C18.7899 8.76073 19.1848 8.2146 19.7422 7.82777C20.2996 7.44093 21.0429 7.25889 21.9719 7.25889C22.901 7.25889 23.6442 7.44093 24.2016 7.78225C24.759 8.14634 25.1539 8.6697 25.4326 9.37511C25.6881 10.0805 25.8274 10.968 25.8274 12.0147C25.8042 12.9477 25.6881 13.7896 25.4326 14.495Z" fill="#4C4C66"/>
<path d="M34.9785 0H32.0984V18.8185H34.9785V0Z" fill="#4C4C66"/>
<path d="M45.0121 15.3824L41.2031 5.16539H37.905L43.5953 18.7502C43.4792 19.1825 43.3166 19.5694 43.154 19.9107C42.8986 20.4568 42.5734 20.8664 42.2018 21.1622C41.8302 21.4581 41.3656 21.5946 40.8082 21.5946C40.5527 21.5946 40.2972 21.5718 40.0882 21.5036C39.8559 21.4581 39.6469 21.3898 39.4146 21.3215V23.7791C39.6469 23.8701 39.9256 23.9384 40.2508 24.0066C40.5759 24.0749 40.9011 24.0977 41.2495 24.0977C41.7837 24.0977 42.3411 23.9611 42.8986 23.7108C43.456 23.4605 44.0134 23.0054 44.5476 22.3683C45.0818 21.7311 45.5928 20.8209 46.0573 19.6604L51.7941 5.16539H48.7748L45.0121 15.3824Z" fill="#4C4C66"/>
<path d="M64.1505 5.41576C63.3143 5.05167 62.2459 4.89239 60.9221 4.89239C60.3646 4.89239 59.784 4.9379 59.2033 5.00616C58.5994 5.07443 58.0188 5.1882 57.4614 5.30198C56.8807 5.43851 56.3465 5.57504 55.8355 5.75708C55.3246 5.93912 54.86 6.12116 54.4652 6.32596V18.864H57.3917V7.87331C57.8562 7.71402 58.344 7.57749 58.8782 7.48647C59.4124 7.39545 59.9233 7.34994 60.4111 7.34994C61.1079 7.34994 61.6885 7.44096 62.1298 7.60025C62.5711 7.75953 62.8963 7.98708 63.1285 8.26015C63.3608 8.53321 63.5234 8.85178 63.5931 9.19311C63.686 9.53443 63.7092 9.87576 63.7092 10.2171V18.864H66.6357V9.83025C66.6357 8.71525 66.4266 7.80504 66.0318 7.07688C65.6137 6.30321 64.9866 5.75708 64.1505 5.41576Z" fill="#4C4C66"/>
<path d="M74.6254 1.36528H71.6292V5.16538H69.3763V7.53192H71.6292V15.3142C71.6292 16.5885 72.0008 17.5442 72.7208 18.2041C73.4409 18.864 74.4396 19.1825 75.717 19.1825C76.0886 19.1825 76.4835 19.137 76.9015 19.0688C77.3196 19.0005 77.6912 18.8867 78.0164 18.7502V16.2244C77.7841 16.3609 77.5287 16.4519 77.2035 16.5429C76.8783 16.634 76.5764 16.6567 76.2512 16.6567C75.6241 16.6567 75.1828 16.4974 74.9506 16.1789C74.7183 15.8603 74.6022 15.3824 74.6022 14.7453V7.53192H77.9932V5.16538H74.6022V1.36528H74.6254Z" fill="#4C4C66"/>
<path d="M92.7882 8.55593C92.3702 7.39542 91.6966 6.48521 90.7676 5.82532C89.8385 5.16542 88.6308 4.84685 87.1211 4.84685C85.0772 4.84685 83.4978 5.46124 82.3597 6.69001C81.2216 7.91879 80.641 9.71644 80.641 12.083C80.641 13.6303 80.9197 14.9274 81.4539 15.9969C81.9881 17.0663 82.7778 17.8628 83.7765 18.4089C84.7752 18.955 85.983 19.2281 87.3533 19.2281C88.3753 19.2281 89.2811 19.1371 90.094 18.9778C90.9069 18.7957 91.6502 18.5909 92.2773 18.3179V15.6783C91.9521 15.8376 91.5573 16.0196 91.0927 16.1789C90.6282 16.3609 90.1172 16.4975 89.583 16.6112C89.0256 16.725 88.445 16.7705 87.8179 16.7705C86.4011 16.7705 85.3559 16.3837 84.6359 15.5873C84.0088 14.9046 83.6372 13.9261 83.5675 12.6519H93.3457C93.4154 11.1045 93.2063 9.7392 92.7882 8.55593ZM85.1701 7.64573C85.6811 7.34991 86.3082 7.19062 87.0514 7.19062C88.1895 7.19062 89.0488 7.50919 89.583 8.14634C90.0243 8.6697 90.303 9.46613 90.4192 10.5356H83.6836C83.7533 10.0123 83.8462 9.5344 83.9855 9.17032C84.2643 8.44215 84.6591 7.94154 85.1701 7.64573Z" fill="#4C4C66"/>
<path d="M109 18.8185L101.963 11.1045L108.303 5.16541H104.726L99.6631 10.2853V0H96.7599V18.8185H99.6399V12.7201L105.261 18.8185H109Z" fill="#4C4C66"/>
</svg>
